<mxfile host="app.diagrams.net" modified="2020-04-12T17:44:29.436Z" agent="5.0 (Macintosh; Intel Mac OS X 10_14_6) AppleWebKit/537.36 (KHTML, like Gecko) Chrome/80.0.3987.149 Safari/537.36" etag="Jy0RsPNMV4affbSgVfN5" version="12.9.11" type="github">
  <diagram id="ya9JxQTmI9gUbMEc43uu" name="Page-1">
    <mxGraphModel dx="2493" dy="1848" grid="1" gridSize="10" guides="1" tooltips="1" connect="1" arrows="1" fold="1" page="1" pageScale="1" pageWidth="827" pageHeight="1169" math="0" shadow="0">
      <root>
        <mxCell id="0" />
        <mxCell id="1" parent="0" />
        <mxCell id="LUaGuVtECoRtNskbtan6-1" value="&lt;b&gt;Customer&lt;/b&gt;&lt;div&gt;&amp;lt;Person&amp;gt;&lt;/div&gt;&lt;br&gt;&lt;div&gt;A customer of the Online&amp;nbsp;&lt;/div&gt;&lt;div&gt;Shopping Application.&lt;/div&gt;" style="html=1;dashed=0;whitespace=wrap;fillColor=#DAE8FC;strokeColor=#6C8EBF;shape=mxgraph.c4.person;align=center;points=[[0.5,0,0],[1,0.5,0],[1,0.75,0],[0.75,1,0],[0.5,1,0],[0.25,1,0],[0,0.75,0],[0,0.5,0]];" parent="1" vertex="1">
          <mxGeometry x="-800" y="300" width="160" height="190" as="geometry" />
        </mxCell>
        <mxCell id="LUaGuVtECoRtNskbtan6-2" value="&amp;lt;externam_system&amp;gt;&lt;br&gt;&lt;b&gt;EMAIL&lt;/b&gt;&lt;br&gt;&lt;br&gt;&lt;br&gt;Email notification &lt;br&gt;system." style="whiteSpace=wrap;html=1;aspect=fixed;fillColor=#A680B8;" parent="1" vertex="1">
          <mxGeometry x="510" y="30" width="140" height="140" as="geometry" />
        </mxCell>
        <mxCell id="LUaGuVtECoRtNskbtan6-5" value="&amp;lt;externam_system&amp;gt;&lt;br&gt;&lt;b&gt;DELIVERY&lt;/b&gt;&lt;br&gt;&lt;br&gt;&lt;br&gt;Shipping and Handling Delivery System." style="whiteSpace=wrap;html=1;aspect=fixed;fillColor=#A680B8;" parent="1" vertex="1">
          <mxGeometry x="510" y="270" width="140" height="140" as="geometry" />
        </mxCell>
        <mxCell id="LUaGuVtECoRtNskbtan6-6" value="&amp;lt;externam_system&amp;gt;&lt;br&gt;&lt;b&gt;PAYMENT&lt;/b&gt;&lt;br&gt;&lt;br&gt;&lt;br&gt;Payment processing systems." style="whiteSpace=wrap;html=1;aspect=fixed;fillColor=#A680B8;" parent="1" vertex="1">
          <mxGeometry x="510" y="500" width="140" height="140" as="geometry" />
        </mxCell>
        <mxCell id="LUaGuVtECoRtNskbtan6-8" value="&amp;lt;container&amp;gt;&lt;br&gt;&lt;b&gt;Web&lt;/b&gt; &lt;b&gt;Application&lt;/b&gt;&lt;br&gt;(&lt;b&gt;MVC&lt;/b&gt;)&lt;br&gt;&lt;br&gt;&lt;br&gt;Caters static contents, single page shopping application." style="whiteSpace=wrap;html=1;aspect=fixed;fillColor=#54C0FF;" parent="1" vertex="1">
          <mxGeometry x="-400" y="600" width="170" height="170" as="geometry" />
        </mxCell>
        <mxCell id="LUaGuVtECoRtNskbtan6-9" value="&amp;lt;container&amp;gt;&lt;br&gt;&lt;b&gt;Single&lt;/b&gt;-&lt;b&gt;Page&lt;/b&gt; &lt;b&gt;Application&lt;/b&gt;.&lt;br&gt;(&lt;b&gt;MVC&lt;/b&gt;)&lt;br&gt;&lt;br&gt;&lt;br&gt;Provides all Online Shopping functionality." style="whiteSpace=wrap;html=1;aspect=fixed;fillColor=#54C0FF;" parent="1" vertex="1">
          <mxGeometry x="-400" y="310" width="170" height="170" as="geometry" />
        </mxCell>
        <mxCell id="LUaGuVtECoRtNskbtan6-10" value="&amp;lt;container&amp;gt;&lt;br&gt;&lt;b&gt;Mobile&lt;/b&gt; &lt;b&gt;Application&lt;/b&gt;&lt;br&gt;(Corona SDK, Flutter)&lt;br&gt;&lt;br&gt;&lt;br&gt;Enable cross platform customer for Online Shipping." style="whiteSpace=wrap;html=1;aspect=fixed;fillColor=#54C0FF;" parent="1" vertex="1">
          <mxGeometry x="-400" y="30" width="170" height="170" as="geometry" />
        </mxCell>
        <mxCell id="LUaGuVtECoRtNskbtan6-11" value="&amp;lt;container&amp;gt;&lt;br&gt;&lt;b&gt;Database&lt;/b&gt;&lt;br&gt;&lt;br&gt;&lt;br&gt;&lt;br&gt;Database for customer information (e.g. account details, address, order history, preferences etc.), payments methods&lt;br&gt;&lt;br&gt;" style="strokeWidth=2;html=1;shape=mxgraph.flowchart.database;whiteSpace=wrap;fillColor=#CDA2BE;" parent="1" vertex="1">
          <mxGeometry y="400" width="210" height="190" as="geometry" />
        </mxCell>
        <mxCell id="LUaGuVtECoRtNskbtan6-13" value="&amp;lt;container&amp;gt;&lt;br&gt;&lt;b&gt;API&lt;/b&gt; &lt;b&gt;Application&lt;/b&gt;&lt;br&gt;(&lt;b&gt;Microservices&lt;/b&gt;, &lt;b&gt;MVC&lt;/b&gt;)&lt;br&gt;&lt;br&gt;&lt;br&gt;Provides Online Shipping functionality via &lt;b&gt;JSON&lt;/b&gt;/&lt;b&gt;HTTPS&lt;/b&gt; Services." style="whiteSpace=wrap;html=1;aspect=fixed;fillColor=#CDA2BE;" parent="1" vertex="1">
          <mxGeometry y="90" width="170" height="170" as="geometry" />
        </mxCell>
        <mxCell id="LUaGuVtECoRtNskbtan6-14" value="" style="endArrow=none;dashed=1;html=1;" parent="1" edge="1">
          <mxGeometry width="50" height="50" relative="1" as="geometry">
            <mxPoint x="439" y="680" as="sourcePoint" />
            <mxPoint x="439" y="10" as="targetPoint" />
          </mxGeometry>
        </mxCell>
        <mxCell id="LUaGuVtECoRtNskbtan6-15" value="" style="endArrow=none;dashed=1;html=1;" parent="1" edge="1">
          <mxGeometry width="50" height="50" relative="1" as="geometry">
            <mxPoint x="440" y="12" as="sourcePoint" />
            <mxPoint x="750" y="12" as="targetPoint" />
          </mxGeometry>
        </mxCell>
        <mxCell id="LUaGuVtECoRtNskbtan6-16" value="" style="endArrow=none;dashed=1;html=1;" parent="1" edge="1">
          <mxGeometry width="50" height="50" relative="1" as="geometry">
            <mxPoint x="750" y="680" as="sourcePoint" />
            <mxPoint x="750" y="10" as="targetPoint" />
          </mxGeometry>
        </mxCell>
        <mxCell id="LUaGuVtECoRtNskbtan6-17" value="" style="endArrow=none;dashed=1;html=1;" parent="1" edge="1">
          <mxGeometry width="50" height="50" relative="1" as="geometry">
            <mxPoint x="440" y="680" as="sourcePoint" />
            <mxPoint x="750" y="680" as="targetPoint" />
          </mxGeometry>
        </mxCell>
        <mxCell id="LUaGuVtECoRtNskbtan6-18" value="&amp;lt;boundary&amp;gt;" style="text;html=1;strokeColor=none;fillColor=none;align=center;verticalAlign=middle;whiteSpace=wrap;rounded=0;rotation=0;" parent="1" vertex="1">
          <mxGeometry x="540" y="650" width="100" height="30" as="geometry" />
        </mxCell>
        <mxCell id="LUaGuVtECoRtNskbtan6-19" value="" style="endArrow=none;dashed=1;html=1;" parent="1" edge="1">
          <mxGeometry width="50" height="50" relative="1" as="geometry">
            <mxPoint x="-480" y="842" as="sourcePoint" />
            <mxPoint x="-480" y="10" as="targetPoint" />
          </mxGeometry>
        </mxCell>
        <mxCell id="LUaGuVtECoRtNskbtan6-20" value="" style="endArrow=none;dashed=1;html=1;" parent="1" edge="1">
          <mxGeometry width="50" height="50" relative="1" as="geometry">
            <mxPoint x="230" y="842" as="sourcePoint" />
            <mxPoint x="230" y="10" as="targetPoint" />
          </mxGeometry>
        </mxCell>
        <mxCell id="LUaGuVtECoRtNskbtan6-21" value="" style="endArrow=none;dashed=1;html=1;" parent="1" edge="1">
          <mxGeometry width="50" height="50" relative="1" as="geometry">
            <mxPoint x="-480" y="840" as="sourcePoint" />
            <mxPoint x="230" y="840" as="targetPoint" />
          </mxGeometry>
        </mxCell>
        <mxCell id="LUaGuVtECoRtNskbtan6-22" value="" style="endArrow=none;dashed=1;html=1;" parent="1" edge="1">
          <mxGeometry width="50" height="50" relative="1" as="geometry">
            <mxPoint x="-480" y="10" as="sourcePoint" />
            <mxPoint x="230" y="10" as="targetPoint" />
          </mxGeometry>
        </mxCell>
        <mxCell id="LUaGuVtECoRtNskbtan6-23" value="&amp;lt;boundary&amp;gt;&lt;br&gt;Internet/Web based System." style="text;html=1;strokeColor=none;fillColor=none;align=center;verticalAlign=middle;whiteSpace=wrap;rounded=0;" parent="1" vertex="1">
          <mxGeometry x="-210" y="10" width="170" height="40" as="geometry" />
        </mxCell>
        <mxCell id="LUaGuVtECoRtNskbtan6-29" value="" style="endArrow=classic;startArrow=classic;html=1;exitX=1;exitY=0.75;exitDx=0;exitDy=0;exitPerimeter=0;entryX=-0.012;entryY=0.429;entryDx=0;entryDy=0;entryPerimeter=0;" parent="1" source="LUaGuVtECoRtNskbtan6-1" target="LUaGuVtECoRtNskbtan6-8" edge="1">
          <mxGeometry width="50" height="50" relative="1" as="geometry">
            <mxPoint x="-680" y="610" as="sourcePoint" />
            <mxPoint x="-630" y="560" as="targetPoint" />
          </mxGeometry>
        </mxCell>
        <mxCell id="LUaGuVtECoRtNskbtan6-30" value="" style="endArrow=classic;startArrow=classic;html=1;entryX=0;entryY=0.5;entryDx=0;entryDy=0;" parent="1" target="LUaGuVtECoRtNskbtan6-9" edge="1">
          <mxGeometry width="50" height="50" relative="1" as="geometry">
            <mxPoint x="-640" y="440" as="sourcePoint" />
            <mxPoint x="-570" y="400" as="targetPoint" />
          </mxGeometry>
        </mxCell>
        <mxCell id="LUaGuVtECoRtNskbtan6-31" value="" style="endArrow=classic;startArrow=classic;html=1;entryX=0;entryY=0.5;entryDx=0;entryDy=0;" parent="1" target="LUaGuVtECoRtNskbtan6-10" edge="1">
          <mxGeometry width="50" height="50" relative="1" as="geometry">
            <mxPoint x="-630" y="420" as="sourcePoint" />
            <mxPoint x="-410" y="130" as="targetPoint" />
          </mxGeometry>
        </mxCell>
        <mxCell id="LUaGuVtECoRtNskbtan6-36" value="&lt;meta charset=&quot;utf-8&quot;&gt;&lt;b style=&quot;font-family: Helvetica; font-size: 11px; font-style: normal; font-variant-ligatures: normal; font-variant-caps: normal; letter-spacing: normal; orphans: 2; text-align: center; text-indent: 0px; text-transform: none; widows: 2; word-spacing: 0px; -webkit-text-stroke-width: 0px; text-decoration-style: initial; text-decoration-color: initial;&quot;&gt;[SSL/HTTPS Connection]&lt;/b&gt;" style="text;html=1;strokeColor=none;fillColor=none;align=center;verticalAlign=middle;whiteSpace=wrap;rounded=0;" parent="1" vertex="1">
          <mxGeometry x="-620" y="290" width="140" height="20" as="geometry" />
        </mxCell>
        <mxCell id="LUaGuVtECoRtNskbtan6-37" value="" style="endArrow=classic;startArrow=classic;html=1;entryX=0;entryY=0.5;entryDx=0;entryDy=0;" parent="1" target="LUaGuVtECoRtNskbtan6-13" edge="1">
          <mxGeometry width="50" height="50" relative="1" as="geometry">
            <mxPoint x="-230" y="125" as="sourcePoint" />
            <mxPoint x="-180" y="75" as="targetPoint" />
          </mxGeometry>
        </mxCell>
        <mxCell id="LUaGuVtECoRtNskbtan6-39" value="&lt;b&gt;[JSON/HTTPS]&lt;/b&gt;" style="edgeLabel;html=1;align=center;verticalAlign=middle;resizable=0;points=[];rotation=0;" parent="LUaGuVtECoRtNskbtan6-37" vertex="1" connectable="0">
          <mxGeometry x="-0.2166" relative="1" as="geometry">
            <mxPoint x="20.1" y="5.459999999999994" as="offset" />
          </mxGeometry>
        </mxCell>
        <mxCell id="LUaGuVtECoRtNskbtan6-38" value="" style="endArrow=classic;startArrow=classic;html=1;exitX=1;exitY=0.5;exitDx=0;exitDy=0;entryX=0;entryY=0.75;entryDx=0;entryDy=0;" parent="1" source="LUaGuVtECoRtNskbtan6-9" target="LUaGuVtECoRtNskbtan6-13" edge="1">
          <mxGeometry width="50" height="50" relative="1" as="geometry">
            <mxPoint x="-220" y="410" as="sourcePoint" />
            <mxPoint x="-170" y="360" as="targetPoint" />
          </mxGeometry>
        </mxCell>
        <mxCell id="LUaGuVtECoRtNskbtan6-40" value="&lt;b&gt;[JSON/HTTPS]&lt;/b&gt;" style="edgeLabel;html=1;align=center;verticalAlign=middle;resizable=0;points=[];rotation=0;" parent="1" vertex="1" connectable="0">
          <mxGeometry x="-149.99977451910263" y="320.0035272784561" as="geometry">
            <mxPoint x="30.1" y="-14.540000000000006" as="offset" />
          </mxGeometry>
        </mxCell>
        <mxCell id="LUaGuVtECoRtNskbtan6-41" value="&lt;meta charset=&quot;utf-8&quot;&gt;&lt;b style=&quot;font-family: Helvetica; font-size: 11px; font-style: normal; font-variant-ligatures: normal; font-variant-caps: normal; letter-spacing: normal; orphans: 2; text-align: center; text-indent: 0px; text-transform: none; widows: 2; word-spacing: 0px; -webkit-text-stroke-width: 0px; text-decoration-style: initial; text-decoration-color: initial;&quot;&gt;[SSL/HTTPS Connection]&lt;/b&gt;" style="text;html=1;strokeColor=none;fillColor=none;align=center;verticalAlign=middle;whiteSpace=wrap;rounded=0;" parent="1" vertex="1">
          <mxGeometry x="-620" y="400" width="140" height="20" as="geometry" />
        </mxCell>
        <mxCell id="LUaGuVtECoRtNskbtan6-45" value="&lt;meta charset=&quot;utf-8&quot;&gt;&lt;b style=&quot;font-family: Helvetica; font-size: 11px; font-style: normal; font-variant-ligatures: normal; font-variant-caps: normal; letter-spacing: normal; orphans: 2; text-align: center; text-indent: 0px; text-transform: none; widows: 2; word-spacing: 0px; -webkit-text-stroke-width: 0px; text-decoration-style: initial; text-decoration-color: initial;&quot;&gt;[SSL/HTTPS Connection]&lt;/b&gt;" style="text;html=1;strokeColor=none;fillColor=none;align=center;verticalAlign=middle;whiteSpace=wrap;rounded=0;" parent="1" vertex="1">
          <mxGeometry x="-620" y="500" width="140" height="20" as="geometry" />
        </mxCell>
        <mxCell id="LUaGuVtECoRtNskbtan6-46" value="" style="endArrow=classic;startArrow=classic;html=1;entryX=0.5;entryY=0;entryDx=0;entryDy=0;entryPerimeter=0;exitX=0.5;exitY=1;exitDx=0;exitDy=0;" parent="1" source="LUaGuVtECoRtNskbtan6-13" target="LUaGuVtECoRtNskbtan6-11" edge="1">
          <mxGeometry width="50" height="50" relative="1" as="geometry">
            <mxPoint x="-230" y="720" as="sourcePoint" />
            <mxPoint x="-180" y="670" as="targetPoint" />
          </mxGeometry>
        </mxCell>
        <mxCell id="LUaGuVtECoRtNskbtan6-47" value="&lt;b&gt;[STORE PROCEDURE [JDBC]&lt;/b&gt;" style="edgeLabel;html=1;align=center;verticalAlign=middle;resizable=0;points=[];" parent="LUaGuVtECoRtNskbtan6-46" vertex="1" connectable="0">
          <mxGeometry x="-0.0856" y="-1" relative="1" as="geometry">
            <mxPoint as="offset" />
          </mxGeometry>
        </mxCell>
        <mxCell id="LUaGuVtECoRtNskbtan6-48" value="" style="endArrow=classic;html=1;entryX=0;entryY=0.5;entryDx=0;entryDy=0;exitX=1;exitY=0.25;exitDx=0;exitDy=0;" parent="1" source="LUaGuVtECoRtNskbtan6-13" target="LUaGuVtECoRtNskbtan6-2" edge="1">
          <mxGeometry width="50" height="50" relative="1" as="geometry">
            <mxPoint x="170" y="190" as="sourcePoint" />
            <mxPoint x="220" y="140" as="targetPoint" />
          </mxGeometry>
        </mxCell>
        <mxCell id="LUaGuVtECoRtNskbtan6-49" value="" style="endArrow=classic;html=1;exitX=1;exitY=0.5;exitDx=0;exitDy=0;entryX=0;entryY=0.5;entryDx=0;entryDy=0;" parent="1" source="LUaGuVtECoRtNskbtan6-13" target="LUaGuVtECoRtNskbtan6-5" edge="1">
          <mxGeometry width="50" height="50" relative="1" as="geometry">
            <mxPoint x="200" y="210" as="sourcePoint" />
            <mxPoint x="250" y="160" as="targetPoint" />
          </mxGeometry>
        </mxCell>
        <mxCell id="LUaGuVtECoRtNskbtan6-50" value="" style="endArrow=classic;html=1;entryX=0;entryY=0.5;entryDx=0;entryDy=0;exitX=1.018;exitY=0.806;exitDx=0;exitDy=0;exitPerimeter=0;" parent="1" source="LUaGuVtECoRtNskbtan6-13" target="LUaGuVtECoRtNskbtan6-6" edge="1">
          <mxGeometry width="50" height="50" relative="1" as="geometry">
            <mxPoint x="170" y="260" as="sourcePoint" />
            <mxPoint x="220" y="210" as="targetPoint" />
          </mxGeometry>
        </mxCell>
        <mxCell id="LUaGuVtECoRtNskbtan6-51" value="&lt;b&gt;REST Services [HTTPS]&lt;br&gt;Order and Shipping &lt;br&gt;information.&lt;br&gt;&lt;/b&gt;" style="text;html=1;align=center;verticalAlign=middle;resizable=0;points=[];autosize=1;" parent="1" vertex="1">
          <mxGeometry x="290" y="195" width="150" height="50" as="geometry" />
        </mxCell>
        <mxCell id="LUaGuVtECoRtNskbtan6-52" value="&lt;b&gt;EMAIL Services [SMTP]&lt;/b&gt;" style="text;html=1;strokeColor=none;fillColor=none;align=center;verticalAlign=middle;whiteSpace=wrap;rounded=0;" parent="1" vertex="1">
          <mxGeometry x="290" y="80" width="140" height="20" as="geometry" />
        </mxCell>
        <mxCell id="LUaGuVtECoRtNskbtan6-53" value="&lt;b&gt;REST Services [HTTPS]&lt;br&gt;Payment information.&lt;br&gt;&lt;/b&gt;" style="text;html=1;align=center;verticalAlign=middle;resizable=0;points=[];autosize=1;" parent="1" vertex="1">
          <mxGeometry x="230" y="440" width="150" height="30" as="geometry" />
        </mxCell>
        <mxCell id="LUaGuVtECoRtNskbtan6-55" value="" style="edgeStyle=elbowEdgeStyle;elbow=horizontal;endArrow=classic;html=1;entryX=0.938;entryY=0.295;entryDx=0;entryDy=0;entryPerimeter=0;exitX=0.5;exitY=0;exitDx=0;exitDy=0;" parent="1" source="LUaGuVtECoRtNskbtan6-2" target="LUaGuVtECoRtNskbtan6-1" edge="1">
          <mxGeometry width="50" height="50" relative="1" as="geometry">
            <mxPoint x="-650" y="210" as="sourcePoint" />
            <mxPoint x="-600" y="160" as="targetPoint" />
            <Array as="points">
              <mxPoint x="-250" y="-50" />
            </Array>
          </mxGeometry>
        </mxCell>
        <mxCell id="LUaGuVtECoRtNskbtan6-56" value="&lt;b&gt;EMAIL SERVICES&lt;/b&gt;" style="edgeLabel;html=1;align=center;verticalAlign=middle;resizable=0;points=[];" parent="LUaGuVtECoRtNskbtan6-55" vertex="1" connectable="0">
          <mxGeometry x="-0.0991" y="2" relative="1" as="geometry">
            <mxPoint as="offset" />
          </mxGeometry>
        </mxCell>
        <mxCell id="LUaGuVtECoRtNskbtan6-57" value="" style="endArrow=classic;startArrow=classic;html=1;exitX=0.5;exitY=0;exitDx=0;exitDy=0;entryX=0.5;entryY=1;entryDx=0;entryDy=0;" parent="1" source="LUaGuVtECoRtNskbtan6-8" target="LUaGuVtECoRtNskbtan6-9" edge="1">
          <mxGeometry width="50" height="50" relative="1" as="geometry">
            <mxPoint x="-350" y="520" as="sourcePoint" />
            <mxPoint x="-300" y="470" as="targetPoint" />
          </mxGeometry>
        </mxCell>
        <mxCell id="LUaGuVtECoRtNskbtan6-58" value="&lt;b&gt;DELIVERS to&lt;br&gt;Customer WEB Browser&lt;/b&gt;" style="edgeLabel;html=1;align=center;verticalAlign=middle;resizable=0;points=[];" parent="LUaGuVtECoRtNskbtan6-57" vertex="1" connectable="0">
          <mxGeometry x="0.3167" y="1" relative="1" as="geometry">
            <mxPoint as="offset" />
          </mxGeometry>
        </mxCell>
      </root>
    </mxGraphModel>
  </diagram>
</mxfile>
